# xmcd
#
# Track frame offsets: 
#        183
#        21915
#        32448
#        56720
#        66105
#        83878
#        101948
#        125638
#        140303
#        164808
#        178628
#        202933
#        216895
#
# Disc length: 3083 seconds
#
# Revision: 0
# Processed by: cddbd v1.5.1PL2 Copyright (c) Steve Scherf et al.
# Submitted via: ExactAudioCopy v0.95a5
#
DISCID=be0c090d
DTITLE=Short Fuse feat. Rudi Richard - Sting it
DYEAR=1991
DGENRE=Blues
TTITLE0=Wreck my life
TTITLE1=Who needs it
TTITLE2=That's all right
TTITLE3=Big Mamou
TTITLE4=Jumpin' at shadows
TTITLE5=Talk to me baby
TTITLE6=I'm so tired
TTITLE7=Petite fille
TTITLE8=Gotta be with you tonite
TTITLE9=It's time
TTITLE10=Five long years
TTITLE11=What you wanna do it for?
TTITLE12=Never thought I'd write a song
EXTD=
EXTT0=
EXTT1=
EXTT2=
EXTT3=
EXTT4=
EXTT5=
EXTT6=
EXTT7=
EXTT8=
EXTT9=
EXTT10=
EXTT11=
EXTT12=
PLAYORDER=
